<svg width="70" height="70" xmlns="http://www.w3.org/2000/svg"><g fill="none" fill-rule="evenodd"><path d="M32.083 20h.584C36.917 20 38 22.148 38 27.318S36.917 34 32.5 34H32V20h.083zm5.734 15.226c5.591-1.096 8.147-3.993 8.147-8.143 0-5.638-3.914-9.083-11.902-9.083H22v1.644c2.476.157 2.716.94 2.716 3.289V47.91c0 2.27-.56 3.053-2.716 3.288v1.644h13.02V51.2c-2.156-.156-2.715-1.018-2.715-3.288V36.009h.719c1.677 0 3.035.626 3.514 2.114.72 2.427.72 7.595 1.678 10.962.959 3.132 3.275 3.915 6.23 3.915 2.317 0 3.915-.705 4.554-1.096l-.08-1.644c-1.997.47-2.796-.314-3.674-5.873-.88-6.03-2.956-8.221-7.43-9.161z" fill="#1A1A1A" fill-rule="nonzero"/><rect stroke="#1F1F1F" stroke-width="2" stroke-linejoin="bevel" x="9" y="10" width="52" height="51" rx="2"/></g></svg>